Coordinates
version=1
nRows=19
nColumns=33
inDegrees=yes

Units are S.I. units (second, meters, Newtons, ...)
Angles are in degrees.

endheader
time	ground_thorax_rot_x	ground_thorax_rot_y	ground_thorax_rot_z	ground_thorax_tx	ground_thorax_ty	ground_thorax_tz	clav_prot_r	clav_elev_r	scapula_abduction_r	scapula_elevation_r	scapula_upward_rot_r	scapula_winging_r	shoulder_elv_r	plane_of_elev_r	axial_rot_r	elbow_flexion_r	pro_sup_r	wrist_flex_r	wrist_dev_r	clav_prot_l	clav_elev_l	scapula_abduction_l	scapula_elevation_l	scapula_upward_rot_l	scapula_winging_l	shoulder_elv_l	plane_of_elev_l	axial_rot_l	elbow_flexion_l	pro_sup_l	wrist_flex_l	wrist_dev_l
      7.70000000	    -38.74972413	    -12.38462729	     18.13401913	   -149.08583017	    795.10320945	      4.41535957	      3.50259126	    -45.00000000	     38.81025442	    -45.00000000	    -23.64146160	   2782.64413425	   -473.96134564	    148.53412068	   -117.14910527	   1812.43563988	     26.88517704	     18.98612489	      9.46931146	     18.22250677	     39.00761273	    -41.24031473	    -45.00000000	    -44.14344360	  -3880.55037656	     70.37924695	     26.75377615	    -25.44586240	   1809.47353469	     10.25500794	      9.84592998	    -18.14514573
      7.71000000	    -38.65067354	    -12.72112146	     18.46121978	   -145.14783006	    792.63745687	      4.55345720	      3.75800018	    -45.00000000	     39.06392813	    -45.00000000	    -23.80376705	   2782.86423848	   -474.27483918	    148.77254843	   -117.17319147	   1812.14758984	     24.75962332	     18.80468622	     10.19700691	     18.33555590	     39.14474365	    -41.20102703	    -45.00000000	    -43.53693272	  -3880.59380301	     69.61547115	     26.63429484	    -26.91815817	   1809.25246431	     10.31556363	      9.79360226	    -18.20207029
      7.72000000	    -38.68322593	    -13.23958350	     18.85748027	   -141.22702713	    790.20180399	      4.70269587	      4.33369931	    -45.00000000	     38.90443696	    -45.00000000	    -24.48669583	   2783.12090602	   -474.93841752	    148.71239928	   -116.66377798	   1811.88029360	     23.70621144	     18.59370011	     10.33355473	     17.55415257	     38.92287316	    -40.86549507	    -45.00000000	    -43.68420155	  -3880.69395520	     69.61352755	     26.85065372	    -27.70364155	   1809.20161519	     10.59079395	      9.98827777	    -18.10022575
      7.73000000	    -38.55455244	    -13.18883375	     18.91810421	   -137.33622700	    787.80824732	      4.86155501	      3.60908537	    -45.00000000	     38.90662842	    -45.00000000	    -24.02826097	   2783.43821460	   -475.04219889	    149.07662936	   -116.30926859	   1811.75757493	     22.82487753	     18.49336841	     10.75419040	     18.58626918	     39.21826334	    -41.33269651	    -45.00000000	    -43.74623619	  -3881.13814938	     69.05591361	     26.67798176	    -27.43666118	   1808.94128256	     10.96794842	      9.95292745	    -17.99769297
      7.74000000	    -38.51209797	    -13.45272248	     19.13334645	   -133.47970336	    785.46960450	      5.03045795	      3.65041081	    -45.00000000	     38.87740456	    -45.00000000	    -24.07651955	   2783.68469055	   -475.46082661	    149.23415907	   -115.81232664	   1811.57247336	     22.42690617	     18.35763703	     10.93454192	     18.58383986	     39.18902953	    -41.25501312	    -45.00000000	    -43.85314731	  -3881.41777453	     68.85345577	     26.80964313	    -27.58106929	   1808.77759552	     11.59179358	     10.00348182	    -17.92291667
      7.75000000	    -38.46791002	    -13.57159860	     19.31826914	   -129.66241119	    783.19827041	      5.20892550	      3.43209082	    -45.00000000	     38.80808829	    -45.00000000	    -23.94361964	   2783.91493297	   -475.84553907	    149.46469193	   -115.40942796	   1811.36981696	     22.30907804	     18.23071449	     11.13185351	     18.88979090	     39.25849731	    -41.36251071	    -45.00000000	    -43.90339938	  -3881.88009014	     68.70796492	     26.70712892	    -27.52846439	   1808.60788245	     12.38770358	     10.06853945	    -17.88018498
      7.76000000	    -38.43850822	    -13.69068953	     19.39458103	   -125.89107171	    781.00864861	      5.39729891	      3.22815411	    -45.00000000	     38.76975849	    -45.00000000	    -23.73802993	   2784.15314306	   -476.26539468	    149.64025337	   -115.02387376	   1811.15069620	     22.42662550	     18.11075472	     11.28968700	     19.16830191	     39.29793307	    -41.39305127	    -45.00000000	    -43.93010704	  -3882.35281653	     68.61490336	     26.62954115	    -27.42967615	   1808.48321837	     13.35655703	     10.13725359	    -17.87284590
      7.77000000	    -38.35526810	    -13.89046944	     19.61233571	   -122.16779014	    778.91347526	      5.59517187	      3.25728950	    -45.00000000	     38.78363827	    -45.00000000	    -23.79808391	   2784.34387950	   -476.60797339	    149.79783626	   -114.59250719	   1810.98243078	     22.69084086	     18.02298740	     11.36655303	     19.13340404	     39.30202729	    -41.43890521	    -45.00000000	    -43.95629022	  -3882.72539976	     68.39117784	     26.55742873	    -27.64937459	   1808.32211630	     14.41017527	     10.10909666	    -17.86880919
      7.78000000	    -38.23721173	    -14.04541421	     19.74192884	   -118.50681432	    776.92825125	      5.80531580	      3.26042301	    -45.00000000	     38.79853711	    -45.00000000	    -23.71352518	   2784.56652986	   -476.91296419	    149.93923564	   -114.20762674	   1810.81177270	     23.02316194	     17.95254444	     11.40836608	     19.20057412	     39.26243068	    -41.54517764	    -44.78265786	    -44.00748222	  -3882.78477786	     68.11800412	     26.66616154	    -27.92934880	   1808.10737345	     15.48487314	      9.98067917	    -17.85694347
      7.79000000	    -38.07665406	    -14.07752749	     19.72116998	   -114.90532522	    775.06494668	      6.02321005	      3.35094259	    -45.00000000	     38.95268311	    -45.00000000	    -23.38884087	   2784.68126469	   -477.21897228	    150.03318868	   -113.86145992	   1810.59259829	     23.39497984	     17.86608446	     11.44488926	     19.06830808	     38.92004216	    -41.66176947	    -44.27466145	    -43.72006952	  -3882.67495700	     67.92768635	     26.69476850	    -28.47995379	   1807.95717625	     16.60358078	      9.90922777	    -17.86430513
      7.80000000	    -37.99904199	    -13.39711120	     19.07428678	   -111.39591469	    773.33378562	      6.26381027	      2.73155665	    -45.00000000	     39.41323699	    -45.00000000	    -21.76173572	   2784.62707621	   -477.50407430	    150.31322845	   -113.76051213	   1810.36366857	     23.86448978	     17.77977306	     11.54917447	     19.68570052	     38.64240042	    -42.23817931	    -43.53377880	    -42.64240456	  -3882.71766619	     67.72853847	     26.30817584	    -28.64502052	   1807.77751005	     18.03052643	      9.91066672	    -17.93680763
      7.81000000	    -37.94653149	    -10.05825790	     14.46749767	   -108.02553878	    771.74961257	      6.54150315	      2.74845436	    -45.00000000	     44.05775403	    -45.00000000	    -11.63324587	   2782.40780362	   -478.25731984	    150.94427335	   -112.61918068	   1810.23319627	     25.15235972	     17.79754338	     11.53205878	     18.55719884	     38.62140852	    -43.46728601	    -41.14322576	    -37.52086241	  -3881.32541765	     67.12737301	     26.17866613	    -28.44101643	   1807.85942155	     21.97527576	      9.57358811	    -18.24654284
      7.82000000	    -37.60035524	    -11.27655040	     16.10835791	   -104.84383366	    770.33013868	      6.87457718	      2.92909586	    -45.00000000	     42.93417905	    -45.00000000	    -14.36951855	   2783.07480643	   -478.31234588	    150.89278266	   -111.96622728	   1810.02215798	     25.28063076	     17.69439485	     11.46210420	     18.85392048	     38.07986284	    -43.20974930	    -41.06524875	    -38.67026649	  -3881.39188430	     66.91832295	     26.08100699	    -30.50886155	   1807.78046317	     23.00309251	      9.08556691	    -18.24135468
      7.83000000	    -35.11844722	     -6.63426917	     13.29330288	   -107.64344204	    777.90801493	     17.00724378	      2.18834181	    -45.00000000	     45.00000000	    -45.00000000	     -6.44760229	   2781.50313800	   -477.92692278	    150.95558312	   -111.85682512	   1809.41616239	     25.36319933	     17.27353559	     11.47593272	     18.21057077	     36.82900366	    -44.40767620	    -38.85405434	    -34.54630852	  -3881.61476244	     66.11443825	     24.73790165	    -35.36967387	   1810.79845108	     24.04703422	      8.33555441	    -17.05539319
      7.84000000	    -34.83507775	     -7.28034938	     13.93749075	   -104.57215513	    776.93519068	     17.26851889	      2.54985354	    -45.00000000	     45.00000000	    -45.00000000	     -7.48771209	   2781.69623180	   -477.98212476	    150.90961245	   -111.70883793	   1809.34003809	     25.54295752	     17.29448894	     11.52624281	     18.16102529	     36.19397112	    -44.52373157	    -38.71267673	    -35.66776801	  -3881.43026990	     65.70629284	     25.26415480	    -35.56225304	   1810.50565753	     24.54241411	      8.05318823	    -16.95106429
      7.85000000	    -34.68825357	     -6.91107480	     13.49965782	   -101.67491905	    776.14600147	     17.56056955	      2.29598022	    -45.00000000	     45.00000000	    -45.00000000	     -6.73229147	   2781.99432252	   -478.02209561	    151.04290705	   -111.62280745	   1809.07406043	     25.97108280	     17.25364686	     11.51983185	     18.27525952	     35.99779675	    -45.00000000	    -38.11789616	    -34.95341659	  -3881.28591763	     65.64607084	     25.12990407	    -35.88365384	   1810.22135696	     25.16414572	      8.06393269	    -16.96797202
      7.86000000	    -34.57127428	     -6.26693507	     12.59732622	    -98.99187549	    775.55365874	     17.88859103	      1.42821394	    -45.00000000	     45.00000000	    -45.00000000	     -5.01935805	   2782.28791056	   -477.95704233	    151.32584412	   -111.42418665	   1808.89897772	     26.82866314	     17.27540534	     11.43657926	     18.23321736	     36.11939386	    -45.00000000	    -37.43402137	    -32.83205877	  -3881.64693768	     65.86272800	     24.39063973	    -36.37280309	   1810.30183078	     25.95225140	      8.16931789	    -17.20771024
      7.87000000	    -36.76564752	     -6.88028355	     10.48404749	   -102.55301221	    784.54176678	      8.03909467	      1.32006215	    -45.00000000	     45.00000000	    -45.00000000	     -4.55707443	   2783.21637288	   -479.31560754	    152.34624642	   -108.67466445	   1811.31052021	     26.73274908	     16.15512897	     10.88018538	     18.36779516	     36.63890313	    -45.00000000	    -36.96422250	    -30.51562602	  -3881.06076215	     65.57811094	     24.24732388	    -36.74838835	   1809.74000580	     26.78137768	      7.98212557	    -17.00656666
      7.88000000	    -36.58834033	     -7.26887891	     10.76553092	   -100.15560756	    784.21927134	      8.36335414	      1.79463400	    -45.00000000	     45.00000000	    -45.00000000	     -5.24433630	   2783.27827951	   -479.50155623	    152.07010935	   -108.76979859	   1811.07625575	     26.64021456	     16.13301283	     10.81923546	     18.03842240	     36.18375232	    -45.00000000	    -36.77493095	    -30.86895840	  -3880.86435711	     65.20218134	     24.67540295	    -37.09694936	   1809.47531276	     27.33856309	      7.89149643	    -16.89339565
